<svg xmlns="http://www.w3.org/2000/svg" xmlns:xlink="http://www.w3.org/1999/xlink" width="368pt" height="241pt" viewBox="0 0 368 241"><g id="graph0" class="graph" transform="scale(1 1) rotate(0) translate(4 237)"><polygon fill="none" stroke="none" points="-4 4 -4 -237 364 -237 364 4 -4 4"/><g id="node1" class="node"><title>from</title><polygon fill="none" stroke="#000" points="360 -233 0 -233 0 -204 360 -204 360 -233"/><text x="125" y="-217" font-family="monospace" font-size="10" font-weight="bold" text-anchor="start">FROM</text><text x="156" y="-217" font-family="monospace" font-size="10" text-anchor="start">ubuntu:latest</text></g><g id="node2" class="node"><title>deps</title><polygon fill="none" stroke="#000" points="360 -182 0 -182 0 -153 360 -153 360 -182"/><text x="110" y="-170.5" font-family="monospace" font-size="10" font-weight="bold" text-anchor="start">RUN</text><text x="135" y="-170.5" font-family="monospace" font-size="10" text-anchor="start">apt-get update &amp;&amp; \</text><text x="74.5" y="-160.5" font-family="monospace" font-size="10" text-anchor="start">apt-get install -y build-essentials</text></g><g id="edge1" class="edge"><title>from-&gt;deps</title><path fill="none" stroke="#000" d="M180,-203.77C180,-199.96 180,-196.15 180,-192.33"/><polygon fill="#000" stroke="#000" points="183.5 -192.24 180 -182.24 176.5 -192.24 183.5 -192.24"/></g><g id="node3" class="node"><title>copy</title><polygon fill="none" stroke="#000" points="360 -131 0 -131 0 -102 360 -102 360 -131"/><text x="101" y="-115" font-family="monospace" font-size="10" font-weight="bold" text-anchor="start">COPY</text><text x="132" y="-115" font-family="monospace" font-size="10" text-anchor="start">main.c Makefile /src/</text></g><g id="edge2" class="edge"><title>deps-&gt;copy</title><path fill="none" stroke="#000" d="M180,-152.77C180,-148.96 180,-145.15 180,-141.33"/><polygon fill="#000" stroke="#000" points="183.5 -141.24 180 -131.24 176.5 -141.24 183.5 -141.24"/></g><g id="node4" class="node"><title>workdir</title><polygon fill="none" stroke="#000" points="360 -80 0 -80 0 -51 360 -51 360 -80"/><text x="140" y="-64" font-family="monospace" font-size="10" font-weight="bold" text-anchor="start">WORKDIR</text><text x="189" y="-64" font-family="monospace" font-size="10" text-anchor="start">/src/</text></g><g id="edge3" class="edge"><title>copy-&gt;workdir</title><path fill="none" stroke="#000" d="M180,-101.77C180,-97.96 180,-94.15 180,-90.33"/><polygon fill="#000" stroke="#000" points="183.5 -90.24 180 -80.24 176.5 -90.24 183.5 -90.24"/></g><g id="node5" class="node"><title>build</title><polygon fill="none" stroke="#000" points="360 -29 0 -29 0 0 360 0 360 -29"/><text x="137" y="-13" font-family="monospace" font-size="10" font-weight="bold" text-anchor="start">RUN</text><text x="162" y="-13" font-family="monospace" font-size="10" text-anchor="start">make build</text></g><g id="edge4" class="edge"><title>workdir-&gt;build</title><path fill="none" stroke="#000" d="M180,-50.77C180,-46.96 180,-43.15 180,-39.33"/><polygon fill="#000" stroke="#000" points="183.5 -39.24 180 -29.24 176.5 -39.24 183.5 -39.24"/></g></g></svg>